<?xml version="1.0" encoding="utf-8"?>
<!-- Generator: Adobe Illustrator 19.0.0, SVG Export Plug-In . SVG Version: 6.00 Build 0)  -->
<svg version="1.1" xmlns="http://www.w3.org/2000/svg" xmlns:xlink="http://www.w3.org/1999/xlink" x="0px" y="0px"
	 viewBox="0 0 500 500" style="enable-background:new 0 0 500 500;" xml:space="preserve">
<style type="text/css">
	.st0{display:none;}
	.st1{display:inline;fill:#FFFFFF;}
	.st2{fill:#CCE1F7;}
	.st3{fill:#3B73AB;}
	.st4{fill:#00528A;}
	.st5{fill:#01305A;}
	.st6{fill:#0F172A;}
	.st7{fill:#72E2AE;}
	.st8{opacity:0.2;fill:#01305A;}
	.st9{fill:#FFFFFF;}
	.st10{opacity:0.1;fill:#01305A;}
	.st11{fill:#FFC0AD;}
	.st12{fill:#FDA084;}
	.st13{fill:#FF7C78;}
	.st14{fill:#D84E5A;}
	.st15{fill:#FF7972;}
</style>
<g id="BACKGROUND" class="st0">
	<rect class="st1" width="500" height="500"/>
</g>
<g id="OBJECTS">
	<g>
		<g>
			<path class="st2" d="M231.6,144.7c-15.4-55.8-84.7-73.8-124.5-32.1c-0.6,0.6-1.1,1.2-1.7,1.8c-57,61.9-30.1,214.5,88.8,253.2
				c118.9,38.7,242.6-32,249.5-95.1c6.9-63.1-47.9-83-133-65.3C262.7,217.3,241.2,179.5,231.6,144.7z"/>
			<path class="st2" d="M351.6,157.6c-15.9,2.6-20.3,16.7-8,26.7c4.1,3.3,9.9,6.1,18.1,7.4c31.5,5.2,48.2-8.7,35.5-26.7
				C389.4,153.8,367.3,155,351.6,157.6z"/>
			<path class="st2" d="M62.4,251.8c-9.9-12.7-24.4-9.8-27.3,5.7c-1,5.1-0.6,11.6,2.2,19.5c10.5,30.1,30.7,38.1,40.5,18.4
				C83.9,283.2,72.2,264.4,62.4,251.8z"/>
			<path class="st2" d="M279.2,129.4l1.7-8.4l-7.9-1.5c0-2.1-0.4-4.2-1-6.2l6.5-4.4l-4.8-7.1l-6.2,4.2c-1.9-1.9-4-3.3-6.4-4.3
				l1.6-7.9l-8.4-1.7l-1.6,8.1c-1.7,0.1-3.4,0.4-5.1,1l-4.4-6.5l-7.1,4.8l4.2,6.2c-1.9,1.9-3.3,4-4.3,6.4l-6.9-1.4l-1.7,8.4l7.1,1.4
				c0.1,2.2,0.6,4.4,1.5,6.5l-6.2,4.2l4.8,7.1l6.5-4.4c1.9,1.6,4,2.8,6.3,3.6l-1.6,7.9l8.4,1.7l1.7-8.6c1.9-0.2,3.7-0.7,5.5-1.4
				l4.2,6.2l7.1-4.8l-4.4-6.5c1.2-1.3,2.1-2.8,2.9-4.4L279.2,129.4z M258,126.1c-3.6,2.4-8.5,1.5-10.9-2.1
				c-2.4-3.6-1.5-8.5,2.1-10.9c3.6-2.4,8.5-1.5,10.9,2.1S261.6,123.7,258,126.1z"/>
			<path class="st2" d="M231.5,90.7l0.9-4.6l-4.3-0.8c0-1.1-0.2-2.3-0.6-3.4l3.6-2.4l-2.6-3.9l-3.4,2.3c-1-1-2.2-1.8-3.5-2.3
				l0.8-4.3l-4.6-0.9l-0.9,4.4c-0.9,0.1-1.9,0.2-2.8,0.5l-2.4-3.6l-3.9,2.6l2.3,3.4c-1,1-1.8,2.2-2.3,3.5l-3.8-0.7l-0.9,4.6l3.9,0.8
				c0.1,1.2,0.3,2.4,0.8,3.6l-3.4,2.3l2.6,3.9l3.6-2.4c1,0.9,2.2,1.6,3.4,2l-0.9,4.3l4.6,0.9l0.9-4.7c1-0.1,2-0.4,3-0.8l2.3,3.4
				l3.9-2.6l-2.4-3.6c0.6-0.7,1.2-1.5,1.6-2.4L231.5,90.7z M220,88.9c-2,1.3-4.6,0.8-6-1.2c-1.3-2-0.8-4.6,1.2-6
				c2-1.3,4.6-0.8,6,1.2C222.5,84.9,221.9,87.5,220,88.9z"/>
			<path class="st2" d="M463.1,114.2l0.9-4.6l-4.3-0.8c0-1.1-0.2-2.3-0.6-3.4l3.6-2.4l-2.6-3.9l-3.4,2.3c-1-1-2.2-1.8-3.5-2.3
				l0.8-4.3l-4.6-0.9l-0.9,4.4c-0.9,0.1-1.9,0.2-2.8,0.5l-2.4-3.6l-3.9,2.6l2.3,3.4c-1,1-1.8,2.2-2.3,3.5l-3.8-0.7l-0.9,4.6l3.9,0.8
				c0.1,1.2,0.3,2.4,0.8,3.6l-3.4,2.3l2.6,3.9l3.6-2.4c1,0.9,2.2,1.6,3.4,2l-0.9,4.3l4.6,0.9l0.9-4.7c1-0.1,2-0.4,3-0.8l2.3,3.4
				l3.9-2.6l-2.4-3.6c0.6-0.7,1.2-1.5,1.6-2.4L463.1,114.2z M451.5,112.4c-2,1.3-4.6,0.8-6-1.2c-1.3-2-0.8-4.6,1.2-6
				c2-1.3,4.6-0.8,6,1.2C454,108.4,453.5,111.1,451.5,112.4z"/>
			<path class="st2" d="M69.4,171.5l0.9-4.6L66,166c0-1.1-0.2-2.3-0.6-3.4l3.6-2.4l-2.6-3.9l-3.4,2.3c-1-1-2.2-1.8-3.5-2.3l0.8-4.3
				l-4.6-0.9l-0.9,4.4c-0.9,0.1-1.9,0.2-2.8,0.5l-2.4-3.6l-3.9,2.6l2.3,3.4c-1,1-1.8,2.2-2.3,3.5l-3.8-0.7l-0.9,4.6l3.9,0.8
				c0.1,1.2,0.3,2.4,0.8,3.6l-3.4,2.3l2.6,3.9l3.6-2.4c1,0.9,2.2,1.6,3.4,2l-0.9,4.3l4.6,0.9l0.9-4.7c1-0.1,2-0.4,3-0.8l2.3,3.4
				l3.9-2.6l-2.4-3.6c0.6-0.7,1.2-1.5,1.6-2.4L69.4,171.5z M57.9,169.6c-2,1.3-4.6,0.8-6-1.2c-1.3-2-0.8-4.6,1.2-6
				c2-1.3,4.6-0.8,6,1.2C60.4,165.6,59.8,168.3,57.9,169.6z"/>
		</g>
	</g>
	<path class="st2" d="M249.7,400.5c-76.3,0-143-3.3-179.2-8.3c-3.8-0.5-5,5-1.3,6c24.7,7,59.7,7.5,82,9.9c38.5,4.1,94.5,3,98.4,16.4
		c3.9,13.4,4.3,27.6-34.9,25.6c-42.6-2.2-35.5-25.6-35.5-25.6c-39.5,1.1-133.5-8.1-143.9-24.1c-10.3-15.8,8.6-19.5,9-19.5
		c0,0,0,0,0,0c15.9-8,101.8-14.2,205.3-14.2c114.9,0,208,7.5,208,16.9C457.7,392.9,364.5,400.5,249.7,400.5z"/>
	<g>
		<g>
			<path class="st3" d="M107.2,351.6c-9.2-9.2-29.2-30.9-41.8-55.4c-18.1-35.3-36.2-32.1-39.8-19.6c-9.2,32.2,45,67.3,67.5,80.2
				L107.2,351.6z"/>
			<g>
				<path class="st4" d="M102.2,353.4C86.4,341.6,73.1,327.6,64,317c-12.1-14.1-19.4-25.3-19.5-25.4c-0.3-0.4-0.8-0.5-1.2-0.3
					c-0.4,0.3-0.5,0.8-0.3,1.2c0.1,0.1,7.4,11.4,19.6,25.6c9,10.4,22.1,24.2,37.6,36L102.2,353.4z"/>
			</g>
		</g>
		<g>
			<path class="st4" d="M104.9,339.2c-4.2-8.5-12.3-26.2-15.3-44.3c-4.5-27-17-28.8-22-21.3c-13.7,20.4,19.1,58.1,29.5,69.2
				L104.9,339.2z"/>
			<g>
				<path class="st5" d="M101.9,340.6c-8-11.2-13.8-23.3-17.6-32.2c-5-11.9-7.4-20.8-7.5-20.8c-0.1-0.3-0.4-0.5-0.7-0.4
					c-0.3,0.1-0.5,0.4-0.4,0.7c0,0.1,2.5,9.1,7.5,21c3.8,8.9,9.6,21.1,17.6,32.3L101.9,340.6z"/>
			</g>
		</g>
		<g>
			<path class="st3" d="M405.1,214.6c8.4-9.9,26.8-33,37.5-58.4c15.4-36.5,33.7-34.7,38.2-22.6c11.6,31.4-39.8,70.4-61.3,85
				L405.1,214.6z"/>
			<g>
				<path class="st4" d="M410.1,216c14.9-13,27.1-28,35.4-39.2c11-15,17.5-26.7,17.5-26.8c0.2-0.4,0.8-0.6,1.2-0.3
					c0.4,0.2,0.6,0.8,0.3,1.2c-0.1,0.1-6.6,11.9-17.6,27c-8.1,11.1-20.2,25.8-34.8,38.7L410.1,216z"/>
			</g>
		</g>
		<g>
			<path class="st4" d="M406.4,202c3.6-8.8,10.3-27,11.9-45.3c2.4-27.3,14.8-30,20.4-22.9c15.1,19.4-14.7,59.3-24.2,71.2L406.4,202z
				"/>
			<g>
				<g>
					<g>
						<path class="st5" d="M409.5,203.2c7.1-11.7,12.1-24.3,15.1-33.5c4.1-12.2,5.9-21.3,5.9-21.3c0.1-0.3,0.4-0.5,0.7-0.5
							c0.3,0.1,0.5,0.4,0.5,0.7c0,0.1-1.8,9.2-5.9,21.5c-3.1,9.2-8,21.7-15.1,33.5L409.5,203.2z"/>
					</g>
				</g>
			</g>
		</g>
		<path class="st4" d="M148.7,111.2c1.6-14.7,0.3-29-7-25.5c-7.3,3.5-4.8,28,5.2,44.1l2.1,6.3c-7.1-11.9-21.2-22-27-18.2
			c-5.8,3.7,4.2,9.6,14.3,13.4c7.6,2.9,12,6.6,14,8.6l9.8,29.8c-11.2-18.8-33.5-34.7-42.7-28.7c-9.1,5.9,6.7,15.2,22.6,21.3
			c12,4.6,18.9,10.3,22.1,13.6l2,5.9c1.1-0.2,2.2-0.4,3.2-0.6L155.7,146c0.8-3,2.3-7.2,5.4-12c5.8-9,10.3-19.7,3.5-19.3
			c-5.9,0.4-10.7,12.7-11,24.9l-4-12.2C148.9,123.3,148,117.6,148.7,111.2z"/>
		<path class="st3" d="M454.5,286.1c4-14.3,10.4-27.1,15.9-21.1c5.5,6-5.9,27.8-21.1,39.1l-4.3,5.1c11-8.4,27.8-12.6,31.8-7
			c4,5.6-7.5,7.4-18.2,7.2c-8.2-0.1-13.5,1.7-16.2,2.9l-20.1,24c17.4-13.3,44-19.8,50.3-10.9c6.3,8.9-11.9,11.7-28.9,11.4
			c-12.9-0.2-21.4,2.6-25.6,4.5l-4,4.8c-0.9-0.6-1.9-1.1-2.8-1.7l24-28.6c0.4-3.1,0.5-7.6-0.6-13.2c-2-10.5-2.3-22.1,3.9-19.2
			c5.4,2.5,5.3,15.7,1.1,27.2l8.3-9.9C449.8,297.3,452.8,292.3,454.5,286.1z"/>
		<g>
			<g>
				<g>
					<path class="st4" d="M120.8,263.8h16.5c-8.9-1.5-30.9-10.9-32.9-29.9c-2.5-24-11.1-23.7-25.5-26.3s-18.4,1.6-27.6-17.1
						c-9.2-18.7-29.6-21-29.6-21s18.6,20.3,15.1,35.8c-3.6,15.4,8.8,21.6,18.7,23.6c9.9,1.9,7.5,15.2,11.3,23.8
						c1.7,3.9,8.7,7.9,15.9,11.2H120.8z"/>
				</g>
			</g>
			<g>
				<g>
					<g>
						<path class="st5" d="M85.1,240.1c0.7,7.2,4.9,15.8,11.1,22.9c0.2,0.3,0.4,0.5,0.7,0.8h1.9c-0.5-0.6-1-1.1-1.5-1.7
							c-5.9-6.8-10.1-15.3-10.7-22.1c-1.1-10.9-9.5-18.3-27.2-24c-10.3-3.3-13.6-15.9-13.6-16c-0.1-0.4-0.5-0.6-0.8-0.5
							c-0.4,0.1-0.6,0.5-0.5,0.8c0.1,0.5,3.5,13.4,14.5,17C76,222.8,84.1,229.9,85.1,240.1z"/>
					</g>
				</g>
			</g>
		</g>
		<g>
			<g>
				<g>
					<path class="st3" d="M112.3,263.8h34.6c0,0,0-0.1,0-0.1c1-3.5,1.5-7,1.6-10.6c0.4-12.1,0.6-42.5-7.2-50.3
						c-9.8-9.8-29.6-13.6-27-28.4c2.6-14.8,0.7-35.2-22.7-38.5S50.1,95.8,50.1,95.8s-7.7,29.6,13.3,52.3s13.2,26,8.9,47.4
						s-9.2,33.1,22.8,49.4C103.9,249.4,109.2,256.2,112.3,263.8z"/>
				</g>
			</g>
			<g>
				<g>
					<path class="st4" d="M94.5,172.8c-1.5,27.7,4.2,43.3,18.7,50.7c9.1,4.6,18.7,14.9,25,26.8c2,3.8,4,8.3,5.6,13.5h2.1
						c-1.6-5.6-3.8-10.5-5.9-14.5c-6.6-12.5-16.3-22.8-25.9-27.6c-13.7-6.9-19.1-21.9-17.6-48.7c1-17.2-15.2-28.7-15.8-29.2
						c-0.5-0.3-1.1-0.2-1.4,0.3c-0.3,0.5-0.2,1.1,0.2,1.4C79.7,145.5,95.4,156.7,94.5,172.8z"/>
				</g>
			</g>
		</g>
		<g>
			<g>
				<g>
					<path class="st4" d="M314.2,208.9H331l17.1-11.1c4.2-6.6,7.9-13.8,7.2-18c-1.5-9.2-10.8-19-3.5-26.1c7.2-7,14.2-18.9,2.8-29.9
						c-11.4-11-6.9-38.2-6.9-38.2s-15.8,13.1-13.3,33.8c2.5,20.6-3.1,19.4-13.8,29.4c-10.7,10-18.1,14.4-7,35.9
						C317.7,192.6,316.9,201.4,314.2,208.9z"/>
				</g>
			</g>
			<g>
				<g>
					<g>
						<path class="st5" d="M333,179.4c3.3,6.4,4.5,15.9,3.2,25.2c0,0.3-0.1,0.7-0.2,1l-1.6,1c0.1-0.8,0.3-1.5,0.4-2.2
							c1.3-9,0.1-18.3-3.1-24.4c-5-9.7-2-20.5,9.7-35c6.8-8.4,2.7-20.7,2.6-20.8c-0.1-0.4,0.1-0.7,0.4-0.9c0.4-0.1,0.8,0.1,0.9,0.4
							c0.2,0.5,4.4,13.1-2.9,22.2C331.3,159.9,328.3,170.2,333,179.4z"/>
					</g>
				</g>
			</g>
		</g>
		<g>
			<g>
				<path class="st3" d="M377.6,208.9c2-1.6,4.2-3.1,6.7-4.4c32-16.3,27-28.1,22.8-49.4c-4.2-21.4-12.1-24.7,8.9-47.4
					c21-22.7,13.3-52.3,13.3-52.3s-18.2,36.7-41.6,40.1c-23.4,3.3-25.3,23.8-22.7,38.5c2.6,14.8-17.1,18.6-27,28.4
					c-7.1,7.1-7.6,32.9-7.3,46.6H377.6z"/>
			</g>
			<g>
				<g>
					<path class="st4" d="M341.8,208.9c6.3-11.5,15.6-21.4,24.5-25.9c14.5-7.3,20.3-22.9,18.7-50.7c-0.9-16.1,14.8-27.3,15-27.4
						c0.5-0.3,0.6-1,0.2-1.4c-0.3-0.5-1-0.6-1.4-0.3c-0.7,0.5-16.8,12-15.8,29.2c1.5,26.8-3.9,41.8-17.6,48.7
						c-9.6,4.9-19.3,15.2-25.9,27.6c0,0,0,0,0,0.1H341.8z"/>
				</g>
			</g>
		</g>
	</g>
	<g>
		<path class="st5" d="M419.4,168.4v180.9c0,7.5-6,13.5-13.5,13.5H97.6c-7.5,0-13.5-6-13.5-13.5V168.4c0-7.5,6-13.5,13.5-13.5h308.3
			C413.4,154.9,419.4,160.9,419.4,168.4z"/>
		<path class="st6" d="M404.5,177.6v162.5c0,4.8-3.9,8.7-8.7,8.7H107.6c-2,0-3.9-0.7-5.4-1.9c-0.4-0.3-0.8-0.6-1.1-1
			c-1.4-1.5-2.2-3.6-2.2-5.8V177.6c0-4.8,3.9-8.7,8.7-8.7h288.2c1.6,0,3.1,0.4,4.4,1.2c1.2,0.7,2.2,1.7,3,2.9
			C404,174.3,404.5,175.9,404.5,177.6z"/>
		<g>
			<g>
				<path class="st7" d="M203.8,290.7H192V306H163v-15.2h-46.1v-19l37.7-54.6h30.7l-33.5,50.4h12.1v-13.6H192v13.6h11.8V290.7z"/>
			</g>
			<g>
				<path class="st7" d="M208,261.5c0-29.5,16.8-46.5,40.3-46.5c23.5,0,40.3,17,40.3,46.5c0,29.5-16.8,46.5-40.3,46.5
					C224.8,308,208,291,208,261.5z M258.4,261.5c0-17.1-4.3-22.5-10.2-22.5c-5.8,0-10.2,5.3-10.2,22.5s4.3,22.5,10.2,22.5
					C254.1,284,258.4,278.7,258.4,261.5z"/>
			</g>
			<g>
				<path class="st7" d="M382,290.7h-11.8V306h-29.1v-15.2H295v-19l37.7-54.6h30.7l-33.5,50.4H342v-13.6h28.2v13.6H382V290.7z"/>
			</g>
		</g>
		<path class="st5" d="M450.7,355.6v1.2c0,5.8-1.8,11.1-5,15.4c-4.8,6.6-12.6,10.9-21.3,10.9H79.1c-8.8,0-16.6-4.3-21.3-10.9
			c-3.1-4.3-5-9.7-5-15.4v-1.2H450.7z"/>
		<path class="st5" d="M207.1,355.6v0.3c0,2.1,1.4,3.8,3.1,3.8h81.2c1.7,0,3.1-1.7,3.1-3.8v-0.3H207.1z"/>
		<g>
			<path class="st8" d="M404.5,177.6v9.6H99v-9.6c0-1.8,0.6-3.6,1.6-5c1.6-2.2,4.2-3.7,7.1-3.7h288.2c2.9,0,5.5,1.5,7.1,3.7
				C403.9,174,404.5,175.7,404.5,177.6z"/>
			<path class="st9" d="M330.7,180.9h-162c-0.4,0-0.8-0.3-0.8-0.8v-3.3c0-0.4,0.3-0.8,0.8-0.8h162c0.4,0,0.8,0.3,0.8,0.8v3.3
				C331.5,180.6,331.1,180.9,330.7,180.9z"/>
			<path class="st5" d="M128.9,178.5v1.8c0,0.5-0.6,0.8-1,0.6l-1.6-0.9l-1.6-0.9c-0.4-0.3-0.4-0.9,0-1.2l1.6-0.9l1.6-0.9
				c0.4-0.3,1,0.1,1,0.6V178.5z"/>
			<path class="st5" d="M136.9,178.5v1.8c0,0.5,0.6,0.8,1,0.6l1.6-0.9l1.6-0.9c0.4-0.3,0.4-0.9,0-1.2l-1.6-0.9l-1.6-0.9
				c-0.4-0.3-1,0.1-1,0.6V178.5z"/>
		</g>
		<path class="st8" d="M402.9,172.6H100.5c1.6-2.2,4.2-3.7,7.1-3.7h288.2C398.8,168.9,401.4,170.4,402.9,172.6z"/>
		<path class="st10" d="M342,334.9H157.4c-3.6,0-6.5-2.9-6.5-6.5l0,0c0-3.6,2.9-6.5,6.5-6.5H342c3.6,0,6.5,2.9,6.5,6.5v0
			C348.5,331.9,345.6,334.9,342,334.9z"/>
	</g>
	<g>
		<path class="st11" d="M367.1,303.7c-1.4,2.7-2.8,5.1-4.1,7.1c-9.9,15-17.3,11.8-21.2,7.2c-1.4-1.6-2.4-3.4-3.1-5
			c-1.2-2.6-1.6-4.9-1.7-5.9l1.8,0.4c2.2,1,5.8,2.4,8.5,2c0.3-0.1,0.7-0.1,1-0.3c2.4-0.9,5.7-5.6,7.9-9.2c1.4-2.4,2.4-4.2,2.4-4.2
			L367.1,303.7z"/>
		<path class="st12" d="M367.1,303.7c-1.4,2.7-2.8,5.1-4.1,7.1c-2.8-3.1-5.4-7.6-6.9-10.7c1.4-2.4,2.4-4.2,2.4-4.2L367.1,303.7z"/>
		<path class="st12" d="M349.3,310c0,0-2,6.1-10.7,3c-1.2-2.6-1.6-4.9-1.7-5.9l1.8,0.4c2.2,1,5.8,2.4,8.5,2L349.3,310z"/>
	</g>
	<g>
		<path class="st11" d="M430.6,325.7c-2,11.5-11.4,3.1-12.2-5.9c-0.2-2-0.2-4.1-0.2-6.1c0-1.9,0.1-3.7,0.3-5.3
			c0-0.3,0.1-0.6,0.1-0.9c0.3-3.9,0.8-6.7,0.8-6.7l6.1-7.5c0,0,0.7,2.1,1.6,5.4c0.8,3,1.9,7,2.6,11.2c0.2,1.3,0.4,2.5,0.6,3.8
			C431,317.9,431.2,322.2,430.6,325.7z"/>
		<path class="st12" d="M427.2,298.6c-1.8,3.3-4.8,7.8-8.7,9.8c0-0.3,0.1-0.6,0.1-0.9c0.3-3.9,0.8-6.7,0.8-6.7l6.1-7.5
			C425.5,293.2,426.3,295.3,427.2,298.6z"/>
		<path class="st12" d="M430.4,313.6c-2.2,1.3-9.5,0.7-12.2,0.1c0-2.2,0.2-4.3,0.3-6.2l11.2,2.3C430,311,430.2,312.3,430.4,313.6z"
			/>
	</g>
	<path class="st3" d="M365.9,275c0,0-8.9,15.7-10.3,21c0,0,6.1,10.1,11.6,11.3l2-6.9C369.1,300.3,369.4,278.7,365.9,275z"/>
	<g>
		<path class="st3" d="M385.4,266.9l-19.5,8.1l8.6,66.8c0,0,26.8,3.8,40.7,0V275l-19-8.5L385.4,266.9z"/>
		<g>
			<g>
				<path class="st4" d="M381.4,303.3c3.3,3.4,7.9,6.6,14.3,8.5c0.2,0.1,0.5-0.1,0.5-0.4c0,0,0,0,0,0c0-0.2-0.1-0.4-0.3-0.4
					c-6.2-1.8-10.7-4.9-13.9-8.2c-0.2-0.2-0.7-0.1-0.7,0.2c0,0,0,0,0,0C381.3,303.1,381.3,303.2,381.4,303.3z"/>
			</g>
			<g>
				<path class="st4" d="M381.5,297L381.5,297c0,0.1,0,0.2,0.1,0.2c0.2,0.4,0.5,0.8,0.7,1.2c1.5,2.2,4.5,5.1,9.6,6.5
					c0,0,0.1,0,0.1,0c0.2,0,0.3-0.1,0.4-0.3c0.1-0.2-0.1-0.4-0.3-0.5c-5.5-1.5-8.4-4.8-9.9-7.3C382.1,296.4,381.5,296.6,381.5,297z"
					/>
			</g>
			<g>
				<g>
					<path class="st4" d="M382.2,279.6C382.2,279.6,382.2,279.6,382.2,279.6c0,0.2,0.2,0.4,0.5,0.4c4.7-0.9,8.3-3,10.7-4.8
						c3.4-2.4,5.1-4.8,5.2-4.9c0.1-0.2,0.1-0.4-0.1-0.5c-0.2-0.1-0.4-0.1-0.5,0.1c-0.1,0.1-5.7,7.5-15.5,9.4
						C382.4,279.2,382.2,279.4,382.2,279.6z"/>
				</g>
			</g>
		</g>
	</g>
	<g>
		<g>
			<g>
				<path class="st11" d="M352.3,384.3l2.1-10.8h-7.1l-1.7,10.2C345.5,383.7,348.4,385.6,352.3,384.3z"/>
				<path class="st4" d="M347.4,384.2c0,0-1.6-2.1-2.8-2c-1.2,0.1-10.7,7.8-14,8.5c-3.3,0.7-2.6,3.1-2,4.3
					c0.6,1.2,26.2-0.8,26.2-0.8s0.6-7.6-0.2-9.9C353.6,382,350,384.8,347.4,384.2z"/>
				<g>
					<g>
						<g>
							<g>
								<path class="st9" d="M342.2,389.6c0.1,0,0.2,0,0.4,0c0.2-0.1,0.3-0.4,0.2-0.6c0-0.1-1.1-1.8-2.4-2.5
									c-1.8-0.9-3.2,0.1-3.3,0.2c-0.2,0.2-0.2,0.4-0.1,0.6c0.2,0.2,0.4,0.2,0.6,0.1c0,0,1-0.7,2.3-0.1c1.1,0.5,2,2.1,2,2.1
									C342,389.5,342,389.6,342.2,389.6z"/>
							</g>
						</g>
					</g>
					<g>
						<g>
							<g>
								<path class="st9" d="M343.5,388.3c0.1,0,0.2,0,0.4,0c0.2-0.1,0.3-0.4,0.2-0.6c0-0.1-1.1-1.8-2.4-2.5
									c-1.8-0.9-3.2,0.1-3.3,0.2c-0.2,0.2-0.2,0.4-0.1,0.6c0.2,0.2,0.4,0.2,0.6,0.1c0,0,1-0.7,2.3-0.1c1.1,0.5,2,2.1,2,2.1
									C343.3,388.2,343.4,388.3,343.5,388.3z"/>
							</g>
						</g>
					</g>
					<g>
						<path class="st9" d="M340.3,390.7c0.1,0,0.2,0,0.4,0c0.2-0.1,0.3-0.4,0.2-0.6c0-0.1-1.1-1.8-2.4-2.5c-1.8-0.9-3.2,0.1-3.3,0.2
							c-0.2,0.2-0.2,0.4-0.1,0.6c0.2,0.2,0.4,0.2,0.6,0.1c0,0,1-0.7,2.3-0.1c1.1,0.5,2,2.1,2,2.1
							C340.1,390.6,340.2,390.7,340.3,390.7z"/>
					</g>
				</g>
			</g>
		</g>
		<g>
			<g>
				<g>
					<path class="st13" d="M384.7,335.1c0,0-12.2-30.4-19.8-29.2c-11.8,1.9-19.6,38-18.7,71.7l8.1,0.5c0,0,9-31.8,10.7-40.1
						c0,0,6.2,21.6,20.3,18.6C395.6,354.4,388.8,343.8,384.7,335.1z"/>
				</g>
			</g>
		</g>
		<g>
			<path class="st14" d="M353.3,376.7l-1-0.2c0-0.1,2.2-11.9,4.8-23.9c5.3-24.4,7.3-25.5,8-25.9c0.5-0.3,1-0.2,1.3-0.1
				c1.3,0.6,2,3.4,3,7.7c1.6,7,3.9,16.5,10.1,20.5l-0.5,0.8c-6.5-4.2-8.8-14-10.5-21.1c-0.8-3.4-1.6-6.7-2.4-7
				c-0.1,0-0.2-0.1-0.4,0.1C362.8,329.2,356.7,357.9,353.3,376.7z"/>
		</g>
		<polygon class="st14" points="345.4,375.2 355.3,376 355.5,376 355,379.3 345.2,378.6 		"/>
	</g>
	<g>
		<g>
			<path class="st13" d="M381.6,356.8c0,0,14.2,2.7,33.1-0.7c-1.6-7.8-5.1-13.9-10.8-19.3l-25.4,1.8
				C376.8,344.6,378,350.7,381.6,356.8z"/>
			<g>
				<g>
					<path class="st4" d="M377.5,381.9c0,0-3.4-0.7-4.3-0.7c-0.9,0.1-6.8,7.2-8.8,7.7c-3.7,0.9-3.5,6.8-1.2,7
						c6.7,0.5,17.9-2.8,17.9-2.8s0.7-7.6,0.1-9.9C380.7,380.9,379.4,382.6,377.5,381.9z"/>
					<path class="st11" d="M379.5,382.4l2.5-9.7h-7.1l-1.6,9.3C373.2,382.1,375.6,383.7,379.5,382.4z"/>
					<g>
						<g>
							<g>
								<g>
									<path class="st9" d="M372.3,388.6c0.1,0,0.2,0,0.4-0.1c0.2-0.2,0.2-0.4,0.1-0.6c-0.1-0.1-1.3-1.7-2.7-2.2
										c-1.9-0.7-3.2,0.5-3.2,0.5c-0.2,0.2-0.2,0.5,0,0.6c0.2,0.2,0.5,0.2,0.6,0c0,0,0.9-0.8,2.3-0.3c1.2,0.4,2.2,1.9,2.2,1.9
										C372.1,388.5,372.2,388.6,372.3,388.6z"/>
								</g>
							</g>
						</g>
						<g>
							<path class="st9" d="M373.5,387.2c0.1,0,0.2,0,0.4-0.1c0.2-0.2,0.2-0.4,0.1-0.6c-0.1-0.1-1.3-1.7-2.7-2.2
								c-1.9-0.7-3.2,0.5-3.2,0.5c-0.2,0.2-0.2,0.5,0,0.6c0.2,0.2,0.5,0.2,0.6,0c0,0,0.9-0.8,2.3-0.3c1.2,0.4,2.2,1.9,2.2,1.9
								C373.3,387.1,373.4,387.2,373.5,387.2z"/>
						</g>
						<g>
							<path class="st9" d="M370.6,389.9c0.1,0,0.2,0,0.4-0.1c0.2-0.2,0.2-0.4,0.1-0.6c-0.1-0.1-1.3-1.7-2.7-2.2
								c-1.9-0.7-3.2,0.5-3.2,0.5c-0.2,0.2-0.2,0.5,0,0.6c0.2,0.2,0.5,0.2,0.6,0c0,0,0.9-0.8,2.3-0.3c1.2,0.4,2.2,1.9,2.2,1.9
								C370.4,389.8,370.5,389.9,370.6,389.9z"/>
						</g>
					</g>
				</g>
			</g>
			<path class="st13" d="M412.9,356.6c-1.8,0.4-3.5,0.4-5,0c-0.5-0.1-1-0.2-1.5-0.4c-9.5-3.4-13.8-18.2-13.8-18.2
				c-1.6,8.3-11,40.1-11,40.1l-1.5-0.2l-1-0.1l-5.5-0.7c-1.1-32.7,7.2-69.3,18.9-71.1c7.6-1.2,19.8,29.2,19.8,29.2
				C416.5,343.8,423.3,354.4,412.9,356.6z"/>
			<g>
				<path class="st14" d="M407.9,356.7c-0.5-0.1-1-0.2-1.5-0.4c-3.5-5.6-5.3-13.4-6.7-19.7c-1.2-5-2.2-9.7-3.7-10.5
					c-0.2-0.1-0.4-0.1-0.7-0.1c-1.2,0.4-4.1,4.4-9.6,27c-2.6,10.8-4.8,21.5-5.5,24.9c-0.1,0.7-0.2,1.1-0.2,1.1l-1-0.2
					c0,0,0.1-0.4,0.2-1c0.7-3.3,2.9-14.1,5.5-25c6.5-26.5,9.3-27.4,10.3-27.7c0.5-0.2,1-0.1,1.5,0.1c1.8,1,2.8,5.3,4.2,11.2
					C402.2,343,404.1,351.2,407.9,356.7z"/>
			</g>
			<polygon class="st14" points="373,374.8 382.8,376.5 383,376.6 382.1,379.8 372.5,378.2 			"/>
		</g>
	</g>
	<path class="st3" d="M415.2,275l12.6,18.3c0,0-5.6,10.6-11.1,11.7c0,0-5.7-10-6.4-15.1C409.7,284.8,413.2,275.4,415.2,275z"/>
	<g>
		<path class="st5" d="M379,246.6c0,7.1,4.4,12,11.5,12c7.1,0,12.1-5.3,12.1-12.4c0-7.1-4.2-12.5-11.3-12.5
			C382.7,233.8,379,239.5,379,246.6z"/>
		<path class="st5" d="M379.4,242.7c0,0-5.3-5.2-3.3-7.7c2-2.5,4.6-0.1,5.4-2.5c0.8-2.4,1.1-5.4,4.3-4.2c3.2,1.2,3.4,3.3,6.4,1.5
			c3.1-1.8,2.4,1.2,5.1,2.6c2.7,1.3,4.6,1.1,4.1,3.7c-0.4,2.6,2.6,3.1,1.3,6c-1.2,2.9-2.7,1.4-2.7,1.4L379.4,242.7z"/>
		<g>
			<path class="st12" d="M380.6,249.7c0,0-2-2.6-3.4-0.5c-1.5,2.2,0.6,8.6,4.2,7L380.6,249.7z"/>
			<g>
				<path class="st15" d="M380.5,254.3c-0.1,0-0.3-0.1-0.3-0.2c-0.6-2-2.6-2.8-2.6-2.8c-0.2-0.1-0.2-0.2-0.2-0.4
					c0.1-0.2,0.2-0.2,0.4-0.2c0.1,0,2.4,0.9,3,3.2C380.9,254.1,380.8,254.2,380.5,254.3C380.6,254.3,380.6,254.3,380.5,254.3z"/>
			</g>
			<g>
				<g>
					<g>
						<path class="st15" d="M378.4,253.3c-0.1,0-0.1,0-0.2,0c-0.1-0.1-0.2-0.3-0.1-0.4c0,0,0.4-0.6,1.1-0.9c0.2-0.1,0.3,0,0.4,0.2
							c0.1,0.2,0,0.3-0.2,0.4c-0.6,0.3-0.9,0.7-0.9,0.7C378.6,253.2,378.5,253.3,378.4,253.3z"/>
					</g>
				</g>
			</g>
		</g>
		<g>
			<path class="st12" d="M400.9,249.7c0,0,2-2.6,3.4-0.5c1.5,2.2-0.6,8.6-4.2,7L400.9,249.7z"/>
			<g>
				<path class="st15" d="M400.9,254.3c0.1,0,0.3-0.1,0.3-0.2c0.6-2,2.6-2.8,2.6-2.8c0.2-0.1,0.2-0.2,0.2-0.4
					c-0.1-0.2-0.2-0.2-0.4-0.2c-0.1,0-2.4,0.9-3,3.2C400.6,254.1,400.7,254.2,400.9,254.3C400.9,254.3,400.9,254.3,400.9,254.3z"/>
			</g>
			<g>
				<g>
					<g>
						<path class="st15" d="M403,253.3c0.1,0,0.1,0,0.2,0c0.1-0.1,0.2-0.3,0.1-0.4c0,0-0.4-0.6-1.1-0.9c-0.2-0.1-0.3,0-0.4,0.2
							c-0.1,0.2,0,0.3,0.2,0.4c0.6,0.3,0.9,0.7,0.9,0.7C402.8,253.2,402.9,253.3,403,253.3z"/>
					</g>
				</g>
			</g>
		</g>
		<path class="st11" d="M395.6,261.7v6.4c0,0-1.9,3.3-4.5,3.5c-2.6,0.2-4.9-2.8-4.9-2.8v-6.6L395.6,261.7z"/>
		<path class="st12" d="M395.6,261.7v2.8c-1.7,1.9-4.8,2.4-9.4,1.7v-4.1L395.6,261.7z"/>
		<path class="st11" d="M379.5,249.5c0.1,1.4,0.3,2.8,0.5,4.2c0.9,4.7,2.8,9.4,7,10.8c9.4,3.4,12.8-4.7,14.1-9.4
			c0.1-0.5,0.3-1.1,0.4-1.7c0.2-1.1,0.4-2.4,0.5-3.6c0.2-1.5,0.3-3.1,0.3-4.4c0.1-2.9-1.6-5.5-4.3-6.5c-3.9-1.5-9.7-2.7-15.3,0.5
			c-2.1,1.2-3.3,3.3-3.4,5.7C379.4,246.2,379.4,247.8,379.5,249.5z"/>
		<path class="st5" d="M379.5,249.5c0.1,1.4,0.3,2.8,0.5,4.2c0.9,4.7,2.8,9.4,7,10.8c9.4,3.4,12.8-4.7,14.1-9.4
			c0.1-0.5,0.3-1.1,0.4-1.7c0.2-1.1,0.4-2.4,0.5-3.6h-1.4c-0.3,0.9-1.8,6.2-2.3,7c-1.1-2.6-6.5-0.9-6.5-0.9l0,0
			c-0.3,0.1-0.7,0.2-1,0.2c-0.4,0-0.7-0.1-1-0.2c0,0-5.4-1.8-6.5,0.7c-0.5-0.8-2.3-6.2-2.6-6.8L379.5,249.5z M390.8,257
			c6.2-0.8,5.2,2.5,5.2,2.5c-0.7,0.6-1.3,1.1-1.7,1.3c-1.3,0.7-2.7,1-3.6,1c-0.9,0-1.2,0.2-3.6-1.1c-0.4-0.2-0.8-0.6-1.3-1
			c0,0,0,0,0,0v0C385.6,259.1,384.6,256,390.8,257z"/>
		<ellipse class="st5" cx="385.9" cy="250.5" rx="0.8" ry="1.2"/>
		<ellipse class="st5" cx="395.2" cy="250.5" rx="0.8" ry="1.2"/>
		<path class="st5" d="M382.5,247.5c0,0,2.6-2,5.1-1.6l0.1,1.3c0,0-3.4,0.6-4.8,1.8C382.6,248.5,382.5,248,382.5,247.5z"/>
		<path class="st5" d="M398.6,247.5c0,0-2.6-2-5.1-1.6l-0.1,1.3c0,0,3.4,0.6,4.8,1.8C398.5,248.5,398.6,248,398.6,247.5z"/>
		<g>
			<path class="st12" d="M390.8,255.3c0.5,0,1-0.2,1.1-0.2c0.2-0.1,0.2-0.2,0.2-0.4c-0.1-0.2-0.2-0.2-0.4-0.2
				c-0.3,0.1-0.9,0.3-1.2,0.1c-0.1,0-0.1-0.1-0.1-0.3c-0.1-1.1,0.2-4.6,0.2-4.7c0-0.2-0.1-0.3-0.3-0.3c-0.2,0-0.3,0.1-0.3,0.3
				c0,0.1-0.3,3.6-0.2,4.8c0,0.4,0.3,0.6,0.4,0.7C390.4,255.3,390.6,255.3,390.8,255.3z"/>
		</g>
		<path class="st9" d="M390.4,257.5c-2.3,0-2.4,3.4-0.1,3.5c0.1,0,0.2,0,0.3,0c0.1,0,0.2,0,0.3,0c2.3-0.1,2.2-3.5-0.1-3.5H390.4z"/>
		<path class="st5" d="M402,249.7h-1.4c0.2-1.4,0.4-3.8-0.8-4.2c-3.6-1.1,1.1-3.6-0.6-4.9c-1.6-1.3-5.7-0.7-8.5-0.8
			c-2.8-0.1-7.4-0.1-8.5,0.2c-1.1,0.3-0.5,2.1-0.1,3.5c0.4,1.4-1.4,3-1.6,4.5c-0.1,0.4-0.1,1,0,1.7h-1.1c-0.1-1.8-0.2-3.4-0.1-4.8
			c0-2.4,1.3-4.5,3.4-5.7c5.6-3.2,11.4-2,15.3-0.5c2.7,1,4.4,3.7,4.3,6.5C402.3,246.7,402.2,248.2,402,249.7z"/>
	</g>
	<g>
		<path class="st4" d="M464.8,356.1c-1.7,6.7-6.5,11.7-13.8,14.6c-1.9,0.8-3.8,1.3-5.4,1.6c0.1-0.1,0.1-0.1,0.2-0.2
			c1.1-1.6,2.1-3.3,2.9-5.1c4.8-1.8,10.3-5.2,12.1-12c1.7-6.5-1-16.3-6.9-24.9c-4.6-6.8-15.2-18.5-33.6-20.8
			c-16.1-2-26.5,0.5-35.7,2.6c-7.8,1.8-15.2,3.6-24.3,2c-6.6-1.2-11.7-2.9-16.2-4.3c-8.3-2.7-13.8-4.5-22.4-1
			c-14.6,6-21.2,30.9-21.2,31.1l-4.1-1.1c0.3-1.1,7.1-27.2,23.8-34c10.1-4.2,16.9-1.9,25.4,0.9c4.4,1.4,9.3,3.1,15.6,4.2
			c8.2,1.4,14.9-0.1,22.6-1.9c9.6-2.2,20.4-4.8,37.2-2.7c7.9,1,15.2,3.7,21.8,8c5.7,3.8,10.9,8.8,14.8,14.6
			C463.9,337.5,466.8,348.3,464.8,356.1z"/>
		<g>
			<path class="st7" d="M260,379l9.5-30.1c4.1-12.8,17.8-19.9,30.6-15.9h0c12.8,4.1,19.9,17.8,15.9,30.6l-9.5,30.1
				C287.1,387.6,279.3,385.2,260,379z"/>
		</g>
	</g>
	<g>
		<g>
			<path class="st11" d="M334.8,307.6c0,0,0.8-1.9,2.5-4.5c0.8-1.3,2.8-1.9,3-0.4c0.2,1.2-0.7,2.2-0.9,3.4c0,0,0.4-0.7,1.4-2.5
				c0.9-1.6,2.1-1.5,2.2-0.3c0.2,1.1-0.2,1.1-0.5,2c-0.4,1.2-0.9,2.6-0.9,2.6s0.4-1.7,1.8-3.6c0.6-0.9,1.3-1.9,2.3-0.5
				c0.5,0.7-0.2,2.5-0.7,4.5c0,0,1-2.7,2.4-3.3c1.1-0.5,1.6-0.1,1.2,1.4c-0.5,1.9-0.9,2.4-1.3,3.5c-0.4,1.1-1.9,2.7-3,2.4
				c-1.2-0.4-1.4-1.2-2.2-1.2c-0.8-0.1-2.1,0-2.6-0.5c-0.5-0.5-1.1-0.6-2-0.6C336.5,310,334.7,308.8,334.8,307.6z"/>
		</g>
	</g>
	<g>
		<path class="st11" d="M417.3,309.5c0,0,0.5-2,1.8-4.8c0.6-1.4,2.2-2.4,2.7-0.9c0.4,1.2-0.1,2.3-0.1,3.5c0,0,0.3-0.7,1-2.6
			c0.6-1.7,1.8-1.8,2.2-0.6c0.3,1.1,0,1.1-0.1,2c-0.2,1.2-0.5,2.7-0.5,2.7s0.2-1.7,1.3-3.8c0.5-1,1-2,2.2-0.8c0.6,0.6,0.2,2.5,0,4.6
			c0,0,0.2-2.4,1.5-3.3c1-0.7,1.9-0.7,1.8,0.9c-0.2,2-0.5,2.5-0.7,3.7c-0.2,1.2-1.4,3-2.6,2.8c-1.2-0.2-1.6-1-2.4-0.9
			c-0.8,0.1-2,0.3-2.6-0.1c-0.6-0.4-1.2-0.4-2.1-0.3C419.4,311.5,417.4,310.7,417.3,309.5z"/>
	</g>
	<g>
		<g>
			<g>
				<path class="st4" d="M255.3,408.1c0,0.8-0.3,1.6-0.9,2.1c-0.5,0.5-1.3,0.9-2.1,0.9h-11.9v-6h11.9
					C253.9,405.1,255.3,406.5,255.3,408.1z"/>
			</g>
			<g>
				<path class="st4" d="M255.3,429.5c0,0.8-0.3,1.6-0.9,2.1c-0.5,0.5-1.3,0.9-2.1,0.9h-11.9v-6h11.9
					C253.9,426.5,255.3,427.8,255.3,429.5z"/>
			</g>
			<g>
				<g>
					<rect x="240.3" y="405.1" class="st5" width="5.4" height="6"/>
				</g>
			</g>
			<g>
				<g>
					<rect x="240.3" y="426.5" class="st5" width="5.4" height="6"/>
				</g>
			</g>
		</g>
		<g>
			<path class="st4" d="M192.9,415.3l-0.2,4.7c-49.5-1.7-87.9-5.4-114.2-10.7C56,404.7,42,398.8,35.5,391.2
				c-3.3-3.9-4.7-8.3-4.1-13.2c1-8.2,8.3-14.2,21.6-18c0.2,1.6,0.5,3.2,1,4.7c-9,2.6-17,6.9-17.9,13.9c-0.4,3.5,0.6,6.6,3,9.5
				c5.7,6.7,19.3,12.2,40.4,16.6C105.5,410,143.6,413.6,192.9,415.3z"/>
		</g>
		<g>
			<path class="st7" d="M240.3,443.2h-31.6c-13.5,0-24.4-10.9-24.4-24.4l0,0c0-13.5,10.9-24.4,24.4-24.4l31.6,0
				C240.3,414.7,240.3,422.9,240.3,443.2z"/>
		</g>
	</g>
	<g>
		<g>
			<path class="st7" d="M457.1,228v16.2c0,2.1-1.7,3.9-3.9,3.9h-29.4l-8.9,3.2c-0.9,0.3-1.8-0.6-1.4-1.5l3.4-8.7V228
				c0-2.1,1.7-3.9,3.9-3.9h32.4C455.4,224.1,457.1,225.8,457.1,228z"/>
		</g>
		<g>
			<g>
				<circle class="st9" cx="428.8" cy="236.5" r="2.8"/>
				<circle class="st9" cx="437.7" cy="236.5" r="2.8"/>
				<circle class="st9" cx="446.6" cy="236.5" r="2.8"/>
			</g>
		</g>
	</g>
	<g>
		<path class="st7" d="M308.9,129.6c0-3.6,3-6.6,6.6-6.6s6.6,3,6.6,6.6s-3,6.6-6.6,6.6S308.9,133.2,308.9,129.6z M310.9,129.6
			c0,2.5,2,4.5,4.5,4.5c2.5,0,4.5-2,4.5-4.5c0-2.5-2-4.5-4.5-4.5C313,125,310.9,127.1,310.9,129.6z"/>
	</g>
	<g>
		<path class="st7" d="M286.8,101.2c0-3.6,3-6.6,6.6-6.6c3.6,0,6.6,3,6.6,6.6c0,3.6-3,6.6-6.6,6.6
			C289.7,107.8,286.8,104.9,286.8,101.2z M288.8,101.2c0,2.5,2,4.5,4.5,4.5c2.5,0,4.5-2,4.5-4.5c0-2.5-2-4.5-4.5-4.5
			C290.9,96.7,288.8,98.7,288.8,101.2z"/>
	</g>
	<g>
		<g>
			<g>
				<path class="st3" d="M288.8,132.9c0.6,0,1-0.5,1-1v-4.6c0-0.6-0.5-1-1-1c-0.6,0-1,0.5-1,1v4.6
					C287.8,132.4,288.3,132.9,288.8,132.9z"/>
			</g>
			<g>
				<path class="st3" d="M288.8,140.9c0.6,0,1-0.5,1-1v-4.6c0-0.6-0.5-1-1-1c-0.6,0-1,0.5-1,1v4.6
					C287.8,140.4,288.3,140.9,288.8,140.9z"/>
			</g>
		</g>
		<g>
			<g>
				<path class="st3" d="M282.4,134.6h4.1c0.6,0,1-0.5,1-1c0-0.6-0.5-1-1-1h-4.1c-0.6,0-1,0.5-1,1
					C281.4,134.1,281.9,134.6,282.4,134.6z"/>
			</g>
			<g>
				<path class="st3" d="M291.2,134.6h4.1c0.6,0,1-0.5,1-1c0-0.6-0.5-1-1-1h-4.1c-0.6,0-1,0.5-1,1
					C290.1,134.1,290.6,134.6,291.2,134.6z"/>
			</g>
		</g>
	</g>
	<g>
		<g>
			<g>
				<g>
					<path class="st4" d="M316.8,102.4c0.6,0,1-0.5,1-1v-4.6c0-0.6-0.5-1-1-1c-0.6,0-1,0.5-1,1v4.6
						C315.7,101.9,316.2,102.4,316.8,102.4z"/>
				</g>
				<g>
					<path class="st4" d="M316.8,110.4c0.6,0,1-0.5,1-1v-4.6c0-0.6-0.5-1-1-1c-0.6,0-1,0.5-1,1v4.6
						C315.7,109.9,316.2,110.4,316.8,110.4z"/>
				</g>
			</g>
			<g>
				<g>
					<path class="st4" d="M310.3,104.1h4.1c0.6,0,1-0.5,1-1c0-0.6-0.5-1-1-1h-4.1c-0.6,0-1,0.5-1,1
						C309.3,103.7,309.8,104.1,310.3,104.1z"/>
				</g>
				<g>
					<path class="st4" d="M319.1,104.1h4.1c0.6,0,1-0.5,1-1c0-0.6-0.5-1-1-1h-4.1c-0.6,0-1,0.5-1,1
						C318,103.7,318.5,104.1,319.1,104.1z"/>
				</g>
			</g>
		</g>
	</g>
	<g>
		<g>
			<path class="st7" d="M117.8,84.3c0-3.6,3-6.6,6.6-6.6c3.6,0,6.6,3,6.6,6.6c0,3.6-3,6.6-6.6,6.6C120.8,90.9,117.8,87.9,117.8,84.3
				z M119.9,84.3c0,2.5,2,4.5,4.5,4.5c2.5,0,4.5-2,4.5-4.5c0-2.5-2-4.5-4.5-4.5C121.9,79.7,119.9,81.8,119.9,84.3z"/>
		</g>
	</g>
	<g>
		<path class="st3" d="M92.4,96.7c0-3.6,3-6.6,6.6-6.6c3.6,0,6.6,3,6.6,6.6s-3,6.6-6.6,6.6C95.3,103.3,92.4,100.3,92.4,96.7z
			 M94.4,96.7c0,2.5,2,4.5,4.5,4.5c2.5,0,4.5-2,4.5-4.5s-2-4.5-4.5-4.5C96.5,92.2,94.4,94.2,94.4,96.7z"/>
	</g>
	<g>
		<g>
			<g>
				<path class="st7" d="M88.6,114.5c0.6,0,1-0.5,1-1v-4.6c0-0.6-0.5-1-1-1c-0.6,0-1,0.5-1,1v4.6C87.5,114,88,114.5,88.6,114.5z"/>
			</g>
			<g>
				<path class="st7" d="M88.6,122.5c0.6,0,1-0.5,1-1v-4.6c0-0.6-0.5-1-1-1c-0.6,0-1,0.5-1,1v4.6C87.5,122,88,122.5,88.6,122.5z"/>
			</g>
		</g>
		<g>
			<g>
				<path class="st7" d="M82.1,116.2h4.1c0.6,0,1-0.5,1-1c0-0.6-0.5-1-1-1h-4.1c-0.6,0-1,0.5-1,1C81.1,115.7,81.6,116.2,82.1,116.2z
					"/>
			</g>
			<g>
				<path class="st7" d="M90.9,116.2H95c0.6,0,1-0.5,1-1c0-0.6-0.5-1-1-1h-4.1c-0.6,0-1,0.5-1,1C89.8,115.7,90.3,116.2,90.9,116.2z"
					/>
			</g>
		</g>
	</g>
	<g>
		<g>
			<g>
				<g>
					<path class="st4" d="M107.2,71.7c0.6,0,1-0.5,1-1v-4.6c0-0.6-0.5-1-1-1c-0.6,0-1,0.5-1,1v4.6C106.1,71.3,106.6,71.7,107.2,71.7
						z"/>
				</g>
				<g>
					<path class="st4" d="M107.2,79.7c0.6,0,1-0.5,1-1v-4.6c0-0.6-0.5-1-1-1c-0.6,0-1,0.5-1,1v4.6C106.1,79.3,106.6,79.7,107.2,79.7
						z"/>
				</g>
			</g>
			<g>
				<g>
					<path class="st4" d="M100.7,73.4h4.1c0.6,0,1-0.5,1-1c0-0.6-0.5-1-1-1h-4.1c-0.6,0-1,0.5-1,1C99.7,73,100.2,73.4,100.7,73.4z"
						/>
				</g>
				<g>
					<path class="st4" d="M109.5,73.4h4.1c0.6,0,1-0.5,1-1c0-0.6-0.5-1-1-1h-4.1c-0.6,0-1,0.5-1,1C108.4,73,108.9,73.4,109.5,73.4z"
						/>
				</g>
			</g>
		</g>
	</g>
</g>
</svg>
